<svg xmlns="http://www.w3.org/2000/svg" width="500" height="500"><g clip-rule="evenodd"><g fill-rule="evenodd"><path fill="#9CC" d="M454.956 312.412l18.139 28.044-222.15 75.552 2.884-2.715z"/><path fill="#699" d="M479.931 290.086l-82.723-126.967-137.72 83.18-8.962 158.872.066 9.772z"/><path fill="#D0E5E8" d="M454.956 357.804l18.139 32.07-222.15 26.134 2.884-2.071z"/><path fill="#366" d="M467.08 401.896l6.015 6.324-222.15 7.788 2.884-1.838z"/><path fill="#9CC" d="M46.108 312.412l-18.141 28.044 222.138 75.552-2.87-2.715z"/><path fill="#699" d="M21.122 290.086l82.732-126.967 137.71 83.18 8.962 158.872-.055 9.772z"/><path fill="#D0E5E8" d="M46.108 357.804l-18.141 32.07 222.138 26.134-2.87-2.071z"/><path fill="#366" d="M33.133 403.287l-5.166 4.933 222.138 7.788-2.87-1.838z"/></g><path fill="none" stroke="#699" stroke-width=".366" stroke-linecap="round" stroke-linejoin="round" stroke-miterlimit="2.613" d="M249.874 23.414v74.46"/><path fill="none" stroke="#699" stroke-width=".365" stroke-linecap="round" stroke-linejoin="round" stroke-miterlimit="2.613" d="M346.902 49.406l-37.228 64.49M417.939 120.442l-64.481 37.231M146.279 157.673l-64.481-37.231M190.064 113.896l-37.229-64.49"/><g fill="none" stroke="#9CC" stroke-width=".366" stroke-linecap="round" stroke-linejoin="round" stroke-miterlimit="2.613"><path d="M154.578 179.067c.364-.914.738-1.818 1.13-2.714 22.502-52.013 82.899-75.934 134.911-53.439a102.637 102.637 0 0 1 53.579 53.756M288.138 72.526l-10.304 39.057M355.492 111.079l-28.528 28.743M172.206 140.382l-28.734-28.528M221.139 111.808l-10.604-39.002"/></g></g><path d="M85.762 476.375c-2.03 0-3.901-.379-5.616-1.137a13.429 13.429 0 0 1-4.436-3.128c-1.244-1.329-2.215-2.887-2.915-4.673-.7-1.785-1.051-3.692-1.051-5.722 0-1.886.329-3.721.986-5.508a14.818 14.818 0 0 1 2.83-4.759 14.093 14.093 0 0 1 4.436-3.342c1.729-.844 3.65-1.265 5.766-1.265 2.085 0 4.007.363 5.764 1.093 1.758.729 3.273 1.742 4.544 3.042 1.271 1.302 2.265 2.838 2.979 4.609s1.073 3.701 1.073 5.785c0 1.828-.344 3.644-1.029 5.444a15.719 15.719 0 0 1-2.895 4.822c-1.243 1.414-2.75 2.558-4.522 3.428-1.771.875-3.743 1.311-5.914 1.311zm.342-1.672c1.6 0 2.972-.335 4.115-1.005 1.143-.672 2.086-1.591 2.83-2.761.742-1.169 1.292-2.546 1.649-4.131.357-1.581.538-3.286.538-5.113 0-1.712-.181-3.366-.538-4.963-.356-1.598-.921-3.019-1.692-4.259a9.083 9.083 0 0 0-3.022-2.996c-1.243-.756-2.75-1.133-4.522-1.133-1.628 0-3.007.356-4.136 1.068-1.129.714-2.043 1.67-2.743 2.868-.701 1.199-1.201 2.582-1.5 4.151a26.16 26.16 0 0 0-.451 4.922c0 1.881.186 3.637.557 5.263.372 1.626.943 3.038 1.715 4.236a8.465 8.465 0 0 0 2.958 2.825c1.199.686 2.613 1.028 4.242 1.028zM128.282 476.203l-18.947-24.133v17.274c0 3.402 1.472 5.101 4.415 5.101v1.287h-10.286v-1.287c2.399 0 3.6-1.703 3.6-5.109v-18.934c0-1.202-1.414-1.804-4.243-1.804v-1.284h7.836l16.768 21.388v-15.378c0-3.15-1.458-4.726-4.373-4.726v-1.284h10.289v1.284c-2.631 0-3.944 1.575-3.944 4.724v22.582l-1.115.299zM136.341 475.732v-1.287c2.514 0 3.772-.771 3.772-2.317v-20.267c0-2.175-1.415-3.263-4.243-3.263v-1.284h12.43v1.284c-2.628 0-3.943 1.088-3.943 3.263v20.267c0 1.202.93 1.804 2.787 1.804h1.972c1.313 0 2.457-.092 3.428-.279.972-.186 1.8-.449 2.487-.793 1.256-.686 2.386-2.728 3.386-6.129l1.157.172-1.287 8.83h-21.946zM161.287 475.732v-1.287c2.714 0 4.072-.987 4.072-2.961v-19.107c0-2.519-1.415-3.778-4.244-3.778v-1.284h12.43v1.284c-2.628 0-3.943 1.26-3.943 3.778v19.107c0 1.974 1.373 2.961 4.115 2.961v1.287h-12.43zM202.007 476.203L183.06 452.07v17.274c0 3.402 1.472 5.101 4.415 5.101v1.287h-10.286v-1.287c2.399 0 3.6-1.703 3.6-5.109v-18.934c0-1.202-1.415-1.804-4.244-1.804v-1.284h7.837l16.768 21.388v-15.378c0-3.15-1.458-4.726-4.373-4.726v-1.284h10.289v1.284c-2.63 0-3.943 1.575-3.943 4.724v22.582l-1.116.299zM209.892 475.732v-1.287c2.628 0 3.943-.93 3.943-2.789v-19.451c0-2.404-1.414-3.606-4.243-3.606v-1.284h22.547l.341 8.015-1.328.172c-.256-1.545-.644-2.743-1.157-3.603-.516-.856-1.137-1.491-1.864-1.905-.729-.414-1.566-.659-2.51-.729a41.811 41.811 0 0 0-3.084-.107h-1.201c-2.172 0-3.258.643-3.258 1.93v7.671c0 .859.343 1.287 1.028 1.287h1.459c.713 0 1.377-.036 1.991-.108a3.802 3.802 0 0 0 1.63-.555c.472-.303.857-.758 1.157-1.373.3-.614.507-1.449.621-2.507h1.586v11.102h-1.586c-.114-1.058-.286-1.893-.513-2.508-.229-.614-.557-1.086-.987-1.414-.428-.328-.958-.544-1.586-.644-.628-.099-1.399-.149-2.313-.149h-.516c-1.315 0-1.972.472-1.972 1.414v8.187c0 1.629 1.143 2.443 3.43 2.443h1.328c1.8 0 3.25-.136 4.351-.407 1.1-.271 1.992-.7 2.679-1.286.685-.584 1.234-1.32 1.65-2.208.414-.886.835-1.928 1.264-3.128l1.157.343-1.157 8.487h-22.887zM250.57 475.732v-1.287c2.514 0 3.771-.771 3.771-2.317v-20.267c0-2.175-1.414-3.263-4.243-3.263v-1.284h12.43v1.284c-2.629 0-3.944 1.088-3.944 3.263v20.267c0 1.202.931 1.804 2.787 1.804h1.972c1.313 0 2.457-.092 3.429-.279.972-.186 1.8-.449 2.487-.793 1.256-.686 2.386-2.728 3.386-6.129l1.157.172-1.287 8.83H250.57zM275.517 475.732v-1.287c2.714 0 4.071-.987 4.071-2.961v-19.107c0-2.519-1.414-3.778-4.243-3.778v-1.284h12.43v1.284c-2.628 0-3.943 1.26-3.943 3.778v19.107c0 1.974 1.372 2.961 4.115 2.961v1.287h-12.43zM309.035 460.559c2.315.342 4.172 1.1 5.573 2.271 1.399 1.173 2.1 2.743 2.1 4.715 0 1.543-.258 2.852-.771 3.922-.512 1.073-1.219 1.937-2.117 2.593-.899.659-1.968 1.131-3.208 1.415-1.24.286-2.573.43-3.999.43-2.366 0-4.684-.029-6.951-.086a296.05 296.05 0 0 0-7.515-.086v-1.287c2.715 0 4.071-.8 4.071-2.399v-20.403c0-2-1.414-3-4.243-3v-1.328h12.368c1.512 0 2.915.121 4.213.363s2.417.63 3.357 1.156c.94.531 1.684 1.216 2.226 2.058.539.844.811 1.88.811 3.108 0 .943-.144 1.75-.428 2.422-.286.672-.694 1.258-1.223 1.758s-1.156.921-1.886 1.265c-.729.342-1.522.656-2.379.943v.17zm-5.585-11.575c-1.992 0-2.988.53-2.988 1.586v8.272c0 .802.412 1.201 1.238 1.201 1.963 0 3.536-.1 4.717-.3 1.182-.201 2.091-.522 2.732-.965.641-.443 1.06-1.014 1.26-1.715.198-.7.298-1.551.298-2.551 0-3.686-1.864-5.529-5.592-5.529h-1.665zm1.949 25.289c.963 0 1.857-.105 2.679-.319a5.567 5.567 0 0 0 2.15-1.073c.608-.5 1.084-1.141 1.426-1.928.339-.786.511-1.751.511-2.895 0-1.342-.207-2.428-.619-3.256a4.509 4.509 0 0 0-1.786-1.931c-.78-.456-1.723-.765-2.829-.921s-2.342-.235-3.701-.235h-1.533c-.822 0-1.234.542-1.234 1.628v9.26c0 1.115 1.021 1.67 3.065 1.67h1.871zM347.955 472.002c0 .344-.079.758-.236 1.245-.156.484-.4.942-.729 1.37-.328.43-.728.8-1.199 1.115a2.836 2.836 0 0 1-1.607.471c-1.743 0-3.029-.293-3.858-.879-.828-.586-1.442-1.535-1.844-2.851a100.424 100.424 0 0 1-1.028-3.492 23.443 23.443 0 0 0-1.221-3.43c-.472-1.042-1.051-1.915-1.736-2.615-.686-.698-1.544-1.049-2.571-1.049h-1.286c-.771 0-1.217.156-1.329.472v9.301c0 1.857 1.313 2.785 3.944 2.785v1.287h-12.089v-1.287c2.514 0 3.771-.928 3.771-2.785v-20.274c0-1.829-1.356-2.743-4.071-2.743v-1.328h5.358c.942 0 1.742-.007 2.399-.022a78.55 78.55 0 0 0 1.907-.063 69.022 69.022 0 0 1 1.972-.064c.701-.016 1.552-.021 2.552-.021 1.227 0 2.386.178 3.472.535 1.086.356 2.021.851 2.807 1.479a7.118 7.118 0 0 1 1.864 2.229c.458.856.688 1.786.688 2.786 0 1.001-.188 1.887-.558 2.657a6.134 6.134 0 0 1-1.564 2.014c-.672.573-1.465 1.058-2.379 1.459-.914.4-1.93.714-3.043.942v.128c1.371.659 2.508 1.479 3.406 2.465.901.985 1.507 1.937 1.822 2.852.172.57.372 1.258.602 2.058.227.8.491 1.558.791 2.271.302.714.649 1.321 1.051 1.821.4.501.886.749 1.458.749.686 0 1.186-.643 1.5-1.928l.984.34zm-15.389-11.786c.856 0 1.688-.058 2.487-.172.8-.115 1.514-.37 2.144-.771.628-.401 1.135-.972 1.52-1.714.386-.742.58-1.758.58-3.045 0-1.086-.194-1.985-.58-2.699-.385-.716-.885-1.279-1.5-1.693a6.033 6.033 0 0 0-2.035-.879 9.676 9.676 0 0 0-2.186-.258h-2.058c-1.087 0-1.629.802-1.629 2.401v8.187c.112.43.456.644 1.029.644h2.228z"/><path d="M364.159 475.732v-1.287c.398-.058.819-.112 1.265-.172.442-.055.841-.128 1.198-.214.359-.086.659-.191.901-.321.242-.128.363-.277.363-.449a3.132 3.132 0 0 1-.064-.494c-.013-.213-.092-.478-.235-.793l-1.928-5.271c-.315-.743-1.188-1.115-2.615-1.115h-6.387c-1.086 0-1.742.37-1.972 1.11l-1.459 4.435c-.114.256-.169.626-.169 1.11 0 1.307 1.256 1.961 3.771 1.961v1.501h-9.646v-1.501c.829-.057 1.536-.341 2.122-.854s1.079-1.256 1.479-2.228l10.288-24.479 1.287.513 10.158 25.462c.398.602.714.972.943 1.114.057.058.293.137.707.236.414.102.991.251 1.735.449v1.287h-11.742zm-3.73-23.018l-3.771 9.002c-.315.686-.472 1.172-.472 1.456 0 .43.529.644 1.587.644h5.399c.857 0 1.287-.172 1.287-.514 0-.143-.157-.614-.472-1.414l-3.558-9.174zM404.621 472.002c0 .344-.079.758-.235 1.245a4.539 4.539 0 0 1-.729 1.37c-.328.43-.727.8-1.198 1.115a2.84 2.84 0 0 1-1.608.471c-1.742 0-3.029-.293-3.857-.879s-1.443-1.535-1.844-2.851a100.348 100.348 0 0 1-1.029-3.492 23.326 23.326 0 0 0-1.221-3.43c-.472-1.042-1.051-1.915-1.736-2.615-.685-.698-1.544-1.049-2.57-1.049h-1.287c-.771 0-1.216.156-1.328.472v9.301c0 1.857 1.312 2.785 3.943 2.785v1.287h-12.089v-1.287c2.515 0 3.772-.928 3.772-2.785v-20.274c0-1.829-1.357-2.743-4.071-2.743v-1.328h5.357c.943 0 1.743-.007 2.399-.022a78.806 78.806 0 0 0 1.908-.063 68.902 68.902 0 0 1 1.972-.064c.7-.016 1.551-.021 2.551-.021 1.228 0 2.386.178 3.473.535 1.086.356 2.02.851 2.807 1.479a7.128 7.128 0 0 1 1.863 2.229c.459.856.688 1.786.688 2.786 0 1.001-.187 1.887-.558 2.657a6.13 6.13 0 0 1-1.563 2.014c-.672.573-1.466 1.058-2.38 1.459-.914.4-1.93.714-3.042.942v.128c1.37.659 2.507 1.479 3.405 2.465.901.985 1.508 1.937 1.822 2.852.172.57.373 1.258.602 2.058.227.8.491 1.558.791 2.271.302.714.65 1.321 1.051 1.821.401.501.886.749 1.459.749.685 0 1.185-.643 1.5-1.928l.982.34zm-15.389-11.786c.857 0 1.688-.058 2.487-.172.8-.115 1.514-.37 2.144-.771.628-.401 1.135-.972 1.521-1.714s.579-1.758.579-3.045c0-1.086-.193-1.985-.579-2.699-.386-.716-.886-1.279-1.5-1.693a6.046 6.046 0 0 0-2.036-.879 9.67 9.67 0 0 0-2.186-.258h-2.058c-1.086 0-1.628.802-1.628 2.401v8.187c.112.43.456.644 1.028.644h2.228zM411.05 475.732v-1.287c2.915 0 4.371-.658 4.371-1.974V464.1l-7.157-11.895c-1.457-2.404-3.029-3.606-4.715-3.606v-1.284h11.7v1.284c-2.056 0-3.084.489-3.084 1.463 0 .229.055.444.17.646.114.2.286.486.515.859l6.044 10.149 5.529-9.978c.086-.287.156-.587.214-.903.058-.313.086-.631.086-.945 0-.859-1.144-1.291-3.428-1.291v-1.284h9.944v1.284c-1.487 0-2.615.544-3.386 1.632l-8.018 13.739v8.674c0 1.202 1.415 1.802 4.243 1.802v1.287H411.05z"/></svg>
